<svg xmlns="http://www.w3.org/2000/svg" width="62.055" height="62.055" viewBox="0 0 62.055 62.055">
  <g id="Group_10" data-name="Group 10" transform="translate(0 0)">
    <path id="Path_27" data-name="Path 27" d="M169.7,138.672A31.028,31.028,0,1,0,200.727,169.7,31.063,31.063,0,0,0,169.7,138.672Zm1.916,38.784a7.629,7.629,0,0,0,5.557-2.361,2.116,2.116,0,0,1,3.05,2.933,11.99,11.99,0,0,1-8.611,3.66,11.839,11.839,0,0,1-5.407-1.35l-1.714,3.08a2.118,2.118,0,0,1-1.853,1.088,2.089,2.089,0,0,1-1.024-.267,2.112,2.112,0,0,1-.821-2.877l2-3.605a11.917,11.917,0,0,1,11.014-19.824l1.088-1.959a2.116,2.116,0,1,1,3.7,2.056l-.809,1.456a11.8,11.8,0,0,1,2.434,1.883,2.116,2.116,0,0,1-3.052,2.933,7.529,7.529,0,0,0-1.421-1.143l-7.5,13.5A7.669,7.669,0,0,0,171.616,177.456Zm0,0" transform="translate(-138.672 -138.672)" fill="#be63f9"/>
    <path id="Path_28" data-name="Path 28" d="M233.922,234.428a7.659,7.659,0,0,0,1.171,4.049l6.559-11.805A7.765,7.765,0,0,0,233.922,234.428Zm0,0" transform="translate(-208.733 -203.4)" fill="#be63f9"/>
  </g>
</svg>
