<svg xmlns="http://www.w3.org/2000/svg" width="66.549" height="47.138" viewBox="0 0 66.549 47.138">
  <path id="Path_59" data-name="Path 59" d="M57.912,32.13v2.55a2.08,2.08,0,0,1-4.159,0V32.13H28.8v2.55a2.08,2.08,0,0,1-4.159,0V32.13H8V50.847a7.621,7.621,0,0,0,7.624,7.624h51.3a7.621,7.621,0,0,0,7.624-7.624V32.13Zm9.013-20.8h-51.3A7.621,7.621,0,0,0,8,18.961v9.013H24.637V24.506a2.08,2.08,0,0,1,4.159,0V27.97H53.753V24.506a2.08,2.08,0,0,1,4.159,0V27.97H74.549V18.957A7.621,7.621,0,0,0,66.925,11.333Z" transform="translate(-8 -11.333)" fill="#26c6da"/>
</svg>
