<svg xmlns="http://www.w3.org/2000/svg" width="38" height="35.435" viewBox="0 0 38 35.435">
  <g id="gift" transform="translate(0 -17.282)">
    <path id="Path_106" data-name="Path 106" d="M67,227.716H35.354a.6.6,0,0,0-.6.6v18.617a.6.6,0,0,0,.6.6H67a.6.6,0,0,0,.6-.6V228.316A.6.6,0,0,0,67,227.716Z" transform="translate(-32.175 -194.816)" fill="#f7434c"/>
    <path id="Path_107" data-name="Path 107" d="M67,227.716H35.354a.6.6,0,0,0-.6.6v2.4H67.6v-2.4A.6.6,0,0,0,67,227.716Z" transform="translate(-32.175 -194.816)" fill="#db2e37"/>
    <path id="Path_108" data-name="Path 108" d="M213.348,227.716h-6.13a.6.6,0,0,0-.6.6v18.617a.6.6,0,0,0,.6.6h6.13a.6.6,0,0,0,.6-.6V228.316A.6.6,0,0,0,213.348,227.716Z" transform="translate(-191.283 -194.816)" fill="#ffdb57"/>
    <path id="Path_109" data-name="Path 109" d="M213.348,227.716h-6.13a.6.6,0,0,0-.6.6V230.7h7.33v-2.387A.6.6,0,0,0,213.348,227.716Z" transform="translate(-191.283 -194.816)" fill="#f5ba3d"/>
    <path id="Path_110" data-name="Path 110" d="M294.514,21.816a12.123,12.123,0,0,0-2.483-4.006,1.831,1.831,0,0,0-1.376-.528c-1.8.042-4.737,2.3-8.725,6.72a.6.6,0,0,0-.155.4v3.174a.6.6,0,0,0,.6.6H291.6c2.056,0,2.905-1,3.255-1.84A6.34,6.34,0,0,0,294.514,21.816Z" transform="translate(-260.862)" fill="#ffdb57"/>
    <path id="Path_111" data-name="Path 111" d="M324.8,79.534a.6.6,0,0,0-.078-.173c-.906-1.37-2.864-.857-4.346-.186a14.825,14.825,0,0,0-6.16,4.749.6.6,0,0,0,.5.927h6.829a3.413,3.413,0,0,0,2.884-1.194C325.151,82.715,325.278,81.289,324.8,79.534Z" transform="translate(-290.805 -56.672)" fill="#ef9325"/>
    <path id="Path_112" data-name="Path 112" d="M63.385,24c-3.988-4.417-6.923-6.678-8.725-6.72a1.828,1.828,0,0,0-1.376.528A12.124,12.124,0,0,0,50.8,21.817a6.342,6.342,0,0,0-.346,4.522c.35.839,1.2,1.84,3.255,1.84H62.94a.6.6,0,0,0,.6-.6V24.405A.6.6,0,0,0,63.385,24Z" transform="translate(-46.453 -0.001)" fill="#ffdb57"/>
    <path id="Path_113" data-name="Path 113" d="M61,83.924a14.823,14.823,0,0,0-6.16-4.749c-1.483-.671-3.44-1.183-4.346.186a.6.6,0,0,0-.078.173c-.478,1.756-.351,3.181.368,4.122a3.413,3.413,0,0,0,2.884,1.194H60.5a.6.6,0,0,0,.5-.927Z" transform="translate(-46.412 -56.673)" fill="#ef9325"/>
    <path id="Path_114" data-name="Path 114" d="M219.681,97.175h-5.026a.6.6,0,0,0-.6.6v3.767a.6.6,0,0,0,.6.6h5.026a.6.6,0,0,0,.6-.6V97.775A.6.6,0,0,0,219.681,97.175Z" transform="translate(-198.168 -73.964)" fill="#f5ba3d"/>
    <path id="Path_115" data-name="Path 115" d="M37.4,147.943H.6a.6.6,0,0,0-.6.6v5.921a.6.6,0,0,0,.6.6H37.4a.6.6,0,0,0,.6-.6v-5.921A.6.6,0,0,0,37.4,147.943Z" transform="translate(0 -120.964)" fill="#f7434c"/>
    <rect id="Rectangle_5" data-name="Rectangle 5" width="9.218" height="7.121" transform="translate(14.391 26.979)" fill="#ffdb57"/>
  </g>
</svg>
