<svg xmlns="http://www.w3.org/2000/svg" width="47" height="44.584" viewBox="0 0 47 44.584">
  <g id="calendar" transform="translate(0 -0.5)">
    <path id="Path_124" data-name="Path 124" d="M45.772,70.6H1.236A1.232,1.232,0,0,1,0,69.369V32.749A3.908,3.908,0,0,1,3.913,28.84H43.095A3.909,3.909,0,0,1,47,32.749V69.369A1.232,1.232,0,0,1,45.772,70.6Zm0,0" transform="translate(-0.004 -25.518)" fill="#d0f4ef"/>
    <path id="Path_126" data-name="Path 126" d="M47,32.753V38.73H0V32.753a3.909,3.909,0,0,1,3.91-3.909H43.092A3.907,3.907,0,0,1,47,32.753Zm0,0" transform="translate(0 -25.521)" fill="#f72b2b"/>
    <g id="Group_17" data-name="Group 17" transform="translate(4.472 16.223)">
      <path id="Path_128" data-name="Path 128" d="M48.354,159.926H45.68a.769.769,0,1,1,0-1.539h2.674a.769.769,0,1,1,0,1.539Zm0,0" transform="translate(-44.91 -158.387)" fill="#628fb1"/>
      <path id="Path_129" data-name="Path 129" d="M130.885,159.926H128.21a.769.769,0,0,1,0-1.539h2.674a.769.769,0,1,1,0,1.539Zm0,0" transform="translate(-119.222 -158.387)" fill="#628fb1"/>
      <path id="Path_130" data-name="Path 130" d="M213.42,159.926h-2.674a.769.769,0,0,1,0-1.539h2.674a.769.769,0,1,1,0,1.539Zm0,0" transform="translate(-193.539 -158.387)" fill="#628fb1"/>
      <path id="Path_131" data-name="Path 131" d="M295.952,159.926h-2.674a.769.769,0,0,1,0-1.539h2.674a.769.769,0,1,1,0,1.539Zm0,0" transform="translate(-267.851 -158.387)" fill="#628fb1"/>
      <path id="Path_132" data-name="Path 132" d="M378.486,159.926h-2.674a.769.769,0,0,1,0-1.539h2.674a.769.769,0,1,1,0,1.539Zm0,0" transform="translate(-342.166 -158.387)" fill="#628fb1"/>
      <path id="Path_133" data-name="Path 133" d="M48.354,198.777H45.68a.769.769,0,0,1,0-1.539h2.674a.769.769,0,0,1,0,1.539Zm0,0" transform="translate(-44.91 -193.369)" fill="#628fb1"/>
      <path id="Path_134" data-name="Path 134" d="M130.885,198.777H128.21a.769.769,0,0,1,0-1.539h2.674a.769.769,0,1,1,0,1.539Zm0,0" transform="translate(-119.222 -193.369)" fill="#628fb1"/>
      <path id="Path_135" data-name="Path 135" d="M213.42,198.777h-2.674a.769.769,0,0,1,0-1.539h2.674a.769.769,0,1,1,0,1.539Zm0,0" transform="translate(-193.539 -193.369)" fill="#628fb1"/>
      <path id="Path_136" data-name="Path 136" d="M295.952,198.777h-2.674a.769.769,0,0,1,0-1.539h2.674a.769.769,0,1,1,0,1.539Zm0,0" transform="translate(-267.851 -193.369)" fill="#628fb1"/>
      <path id="Path_137" data-name="Path 137" d="M378.486,198.777h-2.674a.769.769,0,0,1,0-1.539h2.674a.769.769,0,1,1,0,1.539Zm0,0" transform="translate(-342.166 -193.369)" fill="#628fb1"/>
    </g>
    <path id="Path_138" data-name="Path 138" d="M140.387,266.447a2.253,2.253,0,0,1-1.6-.662l-3.956-3.956a2.261,2.261,0,1,1,3.2-3.2l2.358,2.358,9.235-9.236a2.261,2.261,0,1,1,3.2,3.2l-10.834,10.834a2.253,2.253,0,0,1-1.6.662Zm0,0" transform="translate(-120.809 -225.637)" fill="#f72b2b"/>
    <path id="Path_139" data-name="Path 139" d="M61.42,6.437H59.99a1.1,1.1,0,0,1-1.1-1.1V1.6A1.1,1.1,0,0,1,59.99.5H61.42a1.1,1.1,0,0,1,1.1,1.1V5.338A1.1,1.1,0,0,1,61.42,6.437Zm0,0" transform="translate(-53.026)" fill="#ffbd47"/>
    <path id="Path_140" data-name="Path 140" d="M164.552,6.437h-1.43a1.1,1.1,0,0,1-1.1-1.1V1.6a1.1,1.1,0,0,1,1.1-1.1h1.43a1.1,1.1,0,0,1,1.1,1.1V5.338A1.1,1.1,0,0,1,164.552,6.437Zm0,0" transform="translate(-145.888)" fill="#ffbd47"/>
    <path id="Path_141" data-name="Path 141" d="M267.685,6.437h-1.43a1.1,1.1,0,0,1-1.1-1.1V1.6a1.1,1.1,0,0,1,1.1-1.1h1.43a1.1,1.1,0,0,1,1.1,1.1V5.338A1.1,1.1,0,0,1,267.685,6.437Zm0,0" transform="translate(-238.751)" fill="#ffbd47"/>
    <path id="Path_142" data-name="Path 142" d="M370.814,6.437h-1.429a1.1,1.1,0,0,1-1.1-1.1V1.6a1.1,1.1,0,0,1,1.1-1.1h1.429a1.1,1.1,0,0,1,1.1,1.1V5.338A1.1,1.1,0,0,1,370.814,6.437Zm0,0" transform="translate(-331.61)" fill="#ffbd47"/>
  </g>
</svg>
