<svg xmlns="http://www.w3.org/2000/svg" width="50.622" height="93.8" viewBox="0 0 50.622 93.8">
  <g id="healthcare-and-medical" transform="translate(-112.5)">
    <path id="Path_38" data-name="Path 38" d="M134.833,56h-5.956a2.978,2.978,0,0,0,0,5.956V90.408a25.311,25.311,0,1,0,17.867,0V61.956a2.978,2.978,0,0,0,0-5.956Zm0,0" transform="translate(0 -45.578)" fill="#c7ebf2"/>
    <path id="Path_39" data-name="Path 39" d="M272.5,88h4.467v2.978H272.5Zm0,0" transform="translate(-130.222 -71.622)" fill="#ace7f2"/>
    <path id="Path_40" data-name="Path 40" d="M200.5,88h4.467v2.978H200.5Zm0,0" transform="translate(-71.622 -71.622)" fill="#ace7f2"/>
    <path id="Path_41" data-name="Path 41" d="M113.34,334.3a25.24,25.24,0,0,0,21.6,31.422,25.312,25.312,0,0,0,27.491-19.2c-21.246-2.119-25.459-11.053-49.088-12.218Zm0,0" transform="translate(-0.031 -272.08)" fill="#33c0db"/>
    <path id="Path_42" data-name="Path 42" d="M278.456,426.978A2.978,2.978,0,1,1,275.478,424,2.978,2.978,0,0,1,278.456,426.978Zm0,0" transform="translate(-130.222 -345.089)" fill="#c7ebf2"/>
    <path id="Path_43" data-name="Path 43" d="M208.5,448h2.978v2.978H208.5Zm0,0" transform="translate(-78.134 -364.622)" fill="#ace7f2"/>
    <path id="Path_44" data-name="Path 44" d="M240.5,400h2.978v2.978H240.5Zm0,0" transform="translate(-104.178 -325.555)" fill="#ace7f2"/>
    <path id="Path_45" data-name="Path 45" d="M161.433,380.467A4.467,4.467,0,1,1,156.967,376,4.467,4.467,0,0,1,161.433,380.467Zm0,0" transform="translate(-32.556 -306.022)" fill="#c7ebf2"/>
    <path id="Path_46" data-name="Path 46" d="M208.5,0h2.978V2.978H208.5Zm0,0" transform="translate(-78.134)" fill="#c7ebf2"/>
    <path id="Path_47" data-name="Path 47" d="M256.5,24h2.978v2.978H256.5Zm0,0" transform="translate(-117.2 -19.533)" fill="#c7ebf2"/>
    <path id="Path_48" data-name="Path 48" d="M240.5,64h2.978v2.978H240.5Zm0,0" transform="translate(-104.178 -52.089)" fill="#ace7f2"/>
    <path id="Path_49" data-name="Path 49" d="M228.967,133.4a4.472,4.472,0,0,1-4.467-4.467V120h2.978v8.933a1.489,1.489,0,0,0,2.978,0v-4.467h2.978v4.467A4.472,4.472,0,0,1,228.967,133.4Zm0,0" transform="translate(-91.156 -97.667)" fill="#ace7f2"/>
  </g>
</svg>
