<svg xmlns="http://www.w3.org/2000/svg" width="39.206" height="36.457" viewBox="0 0 39.206 36.457">
  <g id="error" transform="translate(0 -17.95)">
    <path id="Path_116" data-name="Path 116" d="M51.393,60.287,37.542,35.339a4.577,4.577,0,0,0-8.04,0L15.674,60.264l-.023.023a4.6,4.6,0,0,0,4.02,6.823h27.7a4.6,4.6,0,0,0,4.02-6.823Z" transform="translate(-13.918 -13.851)" fill="#fedb41"/>
    <path id="Path_117" data-name="Path 117" d="M273.8,64.859a4.57,4.57,0,0,1-3.951,2.251H256V32.95a4.539,4.539,0,0,1,4.02,2.389l13.851,24.948A4.577,4.577,0,0,1,273.8,64.859Z" transform="translate(-236.397 -13.851)" fill="#fcbf29"/>
    <g id="Group_15" data-name="Group 15" transform="translate(17.306 24.543)">
      <path id="Path_118" data-name="Path 118" d="M230.595,361.347a2.3,2.3,0,1,1-2.3-2.3A2.3,2.3,0,0,1,230.595,361.347Z" transform="translate(-226 -339.523)" fill="#57555c"/>
      <path id="Path_119" data-name="Path 119" d="M230.595,106.347v11.486a2.3,2.3,0,1,1-4.595,0V106.347a2.3,2.3,0,1,1,4.595,0Z" transform="translate(-226 -104.05)" fill="#57555c"/>
    </g>
    <path id="Path_120" data-name="Path 120" d="M38.485,45.885,24.634,20.913a5.752,5.752,0,0,0-10.062,0L.721,45.885a5.755,5.755,0,0,0,5.031,8.523h27.7a5.755,5.755,0,0,0,5.031-8.523ZM36.418,50.41a3.433,3.433,0,0,1-2.963,1.7H5.752a3.463,3.463,0,0,1-3.446-3.446,3.386,3.386,0,0,1,.436-1.677L16.594,22.039a3.423,3.423,0,0,1,6.019,0L36.464,46.987A3.436,3.436,0,0,1,36.418,50.41Z" fill="#fd4e26"/>
    <g id="Group_16" data-name="Group 16" transform="translate(19.603 24.543)">
      <path id="Path_121" data-name="Path 121" d="M258.3,361.347a2.3,2.3,0,0,1-2.3,2.3V359.05A2.3,2.3,0,0,1,258.3,361.347Z" transform="translate(-256 -339.523)" fill="#3c3a41"/>
      <path id="Path_122" data-name="Path 122" d="M258.3,106.347v11.486a2.3,2.3,0,0,1-2.3,2.3V104.05A2.3,2.3,0,0,1,258.3,106.347Z" transform="translate(-256 -104.05)" fill="#3c3a41"/>
    </g>
    <path id="Path_123" data-name="Path 123" d="M274.79,51.582a5.679,5.679,0,0,1-4.939,2.826H256v-2.3h13.851a3.452,3.452,0,0,0,3.009-5.123L259.009,22.039A3.4,3.4,0,0,0,256,20.247v-2.3a5.731,5.731,0,0,1,5.031,2.963l13.851,24.971A5.676,5.676,0,0,1,274.79,51.582Z" transform="translate(-236.397)" fill="#fd3018"/>
  </g>
</svg>
