<svg xmlns="http://www.w3.org/2000/svg" width="73.999" height="71.823" viewBox="0 0 73.999 71.823">
  <g id="reception-desk" transform="translate(0 -7.529)">
    <path id="Path_71" data-name="Path 71" d="M96.34,212.656h-59.7a2.168,2.168,0,0,0-2.168,2.168v37.84a2.168,2.168,0,0,0,2.168,2.168h59.7a2.168,2.168,0,0,0,2.168-2.168v-37.84A2.168,2.168,0,0,0,96.34,212.656Z" transform="translate(-29.491 -175.48)" fill="#f2f4f7"/>
    <g id="Group_13" data-name="Group 13" transform="translate(19.032 19.867)">
      <path id="Path_73" data-name="Path 73" d="M400.954,92.894a2.168,2.168,0,0,0-2.168,2.168v8.071a2.168,2.168,0,1,0,4.336,0V95.062A2.168,2.168,0,0,0,400.954,92.894Z" transform="translate(-360.182 -92.894)" fill="#c7e7ff"/>
      <path id="Path_74" data-name="Path 74" d="M133.851,107.469a2.168,2.168,0,0,0-2.168,2.168V115.6a2.168,2.168,0,0,0,4.336,0v-5.965A2.168,2.168,0,0,0,133.851,107.469Z" transform="translate(-131.683 -105.362)" fill="#c7e7ff"/>
    </g>
    <path id="Path_75" data-name="Path 75" d="M82.222,7.529H61.23A2.168,2.168,0,0,0,59.062,9.7V23.331A2.168,2.168,0,0,0,61.23,25.5H82.222a2.168,2.168,0,0,0,2.168-2.168V9.7a2.168,2.168,0,0,0-2.168-2.168Z" transform="translate(-50.526 0)" fill="#505459"/>
    <path id="Path_76" data-name="Path 76" d="M157.179,7.529h-10.5V25.5h10.5a2.168,2.168,0,0,0,2.168-2.168V9.7a2.168,2.168,0,0,0-2.168-2.168Z" transform="translate(-125.483 0)" fill="#34373b"/>
    <path id="Path_77" data-name="Path 77" d="M66.851,148.74H7.148a7.148,7.148,0,0,0,0,14.3h59.7a7.148,7.148,0,0,0,0-14.3Z" transform="translate(0 -120.802)" fill="#ffa34c"/>
    <path id="Path_79" data-name="Path 79" d="M217.079,312.171h-3.136v-3.136a2.168,2.168,0,0,0-4.336,0v3.136h-3.136a2.168,2.168,0,1,0,0,4.336h3.136v3.136a2.168,2.168,0,0,0,4.336,0v-3.136h3.136a2.168,2.168,0,1,0,0-4.336Z" transform="translate(-174.776 -256.075)" fill="#ff5b6e"/>
    <path id="Path_80" data-name="Path 80" d="M258.168,319.643v-3.136H261.3a2.168,2.168,0,0,0,0-4.336h-3.136v-3.136A2.168,2.168,0,0,0,256,306.868v14.943A2.168,2.168,0,0,0,258.168,319.643Z" transform="translate(-219 -256.076)" fill="#db2e43"/>
  </g>
</svg>
