<svg xmlns="http://www.w3.org/2000/svg" width="47.384" height="71.339" viewBox="0 0 47.384 71.339">
  <g id="patient" transform="translate(0 0)">
    <path id="Path_81" data-name="Path 81" d="M138.351,213.175a9.461,9.461,0,0,1-5.147-1.454v5.025a6.6,6.6,0,0,0,10.25,0v-5.161a8.957,8.957,0,0,1-5.1,1.589Zm0,0" transform="translate(-114.644 -182.105)" fill="#f0a479"/>
    <path id="Path_82" data-name="Path 82" d="M137.509,213.978a9.321,9.321,0,0,1-4.306-1.419v5.025a6.55,6.55,0,0,0,4.306,2.392Zm0,0" transform="translate(-114.643 -182.942)" fill="#e5966e"/>
    <path id="Path_83" data-name="Path 83" d="M42.369,259.11l-10.078-3.9a5.53,5.53,0,0,1-2.117,2.885,11.459,11.459,0,0,1-12.978,0,5.532,5.532,0,0,1-2.117-2.884l-10.064,3.9A8.592,8.592,0,0,0,0,266.889v12.324H6.686a1.671,1.671,0,0,1,1.671,1.671v10.1H39.027v-10.1a1.671,1.671,0,0,1,1.671-1.671h6.686V266.889a8.591,8.591,0,0,0-5.014-7.779Zm0,0" transform="translate(0 -219.648)" fill="#00c3ff"/>
    <path id="Path_84" data-name="Path 84" d="M7.754,275.828l-2.61,1.012a8.592,8.592,0,0,0-5.015,7.779v12.325H4.435V282.568a8.3,8.3,0,0,1,3.319-6.74Zm0,0" transform="translate(-0.111 -237.395)" fill="#00aaf0"/>
    <path id="Path_85" data-name="Path 85" d="M121.487,245.531a6.6,6.6,0,0,1-10.25,0l-3.556,1.379a5.55,5.55,0,0,0,2.192,3.142,11.459,11.459,0,0,0,12.978,0,5.549,5.549,0,0,0,2.193-3.143Zm0,0" transform="translate(-92.677 -211.32)" fill="#00aaf0"/>
    <path id="Path_86" data-name="Path 86" d="M198.593,346.477a2.619,2.619,0,0,0-2.26,1.323.408.408,0,0,1-.669,0,2.591,2.591,0,0,0-4.844,1.281c0,2.9,2.559,5.187,5.07,6.372a.274.274,0,0,0,.119.027.278.278,0,0,0,.119-.027,12.086,12.086,0,0,0,2.481-1.6,6.243,6.243,0,0,0,2.576-4.783A2.6,2.6,0,0,0,198.593,346.477Zm0,0" transform="translate(-164.232 -298.201)" fill="#d665d3"/>
    <path id="Path_87" data-name="Path 87" d="M195.127,349.116a2.569,2.569,0,0,1,.437-1.442,2.591,2.591,0,0,0-4.744,1.442c0,2.9,2.559,5.187,5.07,6.372a.278.278,0,0,0,.238,0,12.157,12.157,0,0,0,2.02-1.233,6.688,6.688,0,0,1-3.021-5.138Zm0,0" transform="translate(-164.232 -298.241)" fill="#c64ac6"/>
    <path id="Path_88" data-name="Path 88" d="M8.645,437.5v-10.39a1.671,1.671,0,0,0-1.671-1.671H0v10.39A1.671,1.671,0,0,0,1.671,437.5H8.645Zm0,0" transform="translate(0 -366.159)" fill="#f0a479"/>
    <path id="Path_89" data-name="Path 89" d="M4.318,435.828v-10.39H0v10.39A1.671,1.671,0,0,0,1.671,437.5H5.99A1.671,1.671,0,0,1,4.318,435.828Zm0,0" transform="translate(0 -366.16)" fill="#e5966e"/>
    <path id="Path_90" data-name="Path 90" d="M285.58,424.16v.178h-6.973a1.671,1.671,0,0,0-1.671,1.671V436.4h6.973a1.671,1.671,0,0,0,1.671-1.671Zm0,0" transform="translate(-238.196 -365.06)" fill="#f0a479"/>
    <path id="Path_91" data-name="Path 91" d="M284.114,425.438H279.7a1.671,1.671,0,0,0-1.671,1.671V437.5h4.411v-10.39A1.671,1.671,0,0,1,284.114,425.438Zm0,0" transform="translate(-239.292 -366.16)" fill="#e5966e"/>
    <path id="Path_92" data-name="Path 92" d="M84.361,16.176v-.582a.836.836,0,0,1,.9-.833A20.915,20.915,0,0,0,98.187,11.5a.836.836,0,0,1,1.069.13c3.12,3.353,2.814,2.937,2.814,3.375v1.164c1.2-.078,2.619,1.077,3.411,1.811V12.266a12.266,12.266,0,0,0-24.532,0v5.091a5.312,5.312,0,0,1,3.412-1.181Zm0,0" transform="translate(-69.67 0)" fill="#707487"/>
    <path id="Path_93" data-name="Path 93" d="M85.255,12.266A12.267,12.267,0,0,1,95.368.192,12.257,12.257,0,0,0,80.949,12.266v5.091a5.309,5.309,0,0,1,3.412-1.181v-.583a.835.835,0,0,1,.895-.833Zm0,0" transform="translate(-69.67)" fill="#52586d"/>
    <path id="Path_94" data-name="Path 94" d="M233.519,116.008v6.756c0,.085,0,.17-.007.255a3.568,3.568,0,1,0,.007-7.01Zm0,0" transform="translate(-200.976 -99.836)" fill="#f0a479"/>
    <path id="Path_95" data-name="Path 95" d="M236.389,116.888a4.236,4.236,0,0,0-2.871-.88v6.756c0,.085,0,.169-.007.254a4.232,4.232,0,0,0,2.878-.88Zm0,0" transform="translate(-200.975 -99.836)" fill="#e5966e"/>
    <path id="Path_96" data-name="Path 96" d="M78.246,119.737v-6.745c-1.992-.065-4.234,1.463-4.234,3.494a3.842,3.842,0,0,0,4.24,3.505C78.25,119.906,78.246,119.821,78.246,119.737Zm0,0" transform="translate(-63.699 -97.246)" fill="#f0a479"/>
    <path id="Path_97" data-name="Path 97" d="M78.246,119.111a3.366,3.366,0,0,1-1.363-2.626,3.249,3.249,0,0,1,1.363-2.528v-.966c-1.992-.065-4.234,1.463-4.234,3.494a3.842,3.842,0,0,0,4.24,3.505c0-.084-.006-.169-.006-.254Zm0,0" transform="translate(-63.699 -97.246)" fill="#e5966e"/>
    <path id="Path_98" data-name="Path 98" d="M118.554,76.652a.836.836,0,0,0-1.069-.13,21.96,21.96,0,0,1-13.217,3.55.836.836,0,0,0-.9.833v7.328a9.143,9.143,0,0,0,18.283,0V80.314c0-.438.019-.309-3.1-3.662Zm0,0" transform="translate(-88.968 -65.742)" fill="#f7b594"/>
    <path id="Path_99" data-name="Path 99" d="M107.678,110.621V102.4a19.5,19.5,0,0,1-3.41.062.836.836,0,0,0-.9.833v7.328a9.241,9.241,0,0,0,11.352,8.766,8.956,8.956,0,0,1-7.045-8.766Zm0,0" transform="translate(-88.968 -88.131)" fill="#f0a479"/>
  </g>
</svg>
