<svg xmlns="http://www.w3.org/2000/svg" width="73.2" height="73.2" viewBox="0 0 73.2 73.2">
  <g id="Group_62" data-name="Group 62" transform="translate(0 -0.001)">
    <path id="Path_34" data-name="Path 34" d="M40.79,261.037h0a19.91,19.91,0,0,0,28.158,0l16.689-16.689L71.558,225.976Z" transform="translate(-34.958 -193.668)" fill="#ff4e0a"/>
    <path id="Path_35" data-name="Path 35" d="M22.521,157.525,5.832,174.214a19.91,19.91,0,0,0,0,28.158h0l34.1-34.1Z" transform="translate(0 -135.004)" fill="#ff4e0a"/>
    <path id="Path_36" data-name="Path 36" d="M286.767,40.79,266.531,54.354,256,71.558l14.079,14.079,16.69-16.689a19.91,19.91,0,0,0,0-28.158Z" transform="translate(-219.399 -34.958)" fill="#ff4e0a"/>
    <path id="Path_37" data-name="Path 37" d="M202.371,5.832h0a19.91,19.91,0,0,0-28.158,0l-16.69,16.689L171.6,36.6Z" transform="translate(-135.003)" fill="#ff4e0a"/>
  </g>
</svg>
