<svg xmlns="http://www.w3.org/2000/svg" width="49" height="49" viewBox="0 0 49 49">
  <g id="gear" transform="translate(0 0)">
    <path id="Path_511" data-name="Path 511" d="M47.847,18.921,44.081,18.1a20.5,20.5,0,0,0-1.212-2.923l2.085-3.243a1.464,1.464,0,0,0-.2-1.827L38.891,4.242a1.464,1.464,0,0,0-1.827-.2L33.821,6.131A20.5,20.5,0,0,0,30.9,4.919l-.819-3.766A1.464,1.464,0,0,0,28.648,0h-8.3a1.464,1.464,0,0,0-1.431,1.153L18.1,4.919a20.5,20.5,0,0,0-2.923,1.212L11.936,4.046a1.464,1.464,0,0,0-1.827.2L4.242,10.109a1.464,1.464,0,0,0-.2,1.827l2.085,3.243A20.5,20.5,0,0,0,4.919,18.1l-3.766.819A1.464,1.464,0,0,0,0,20.351v8.3a1.464,1.464,0,0,0,1.153,1.431l3.766.819A20.5,20.5,0,0,0,6.131,33.82L4.046,37.064a1.464,1.464,0,0,0,.2,1.827l5.867,5.867a1.464,1.464,0,0,0,1.827.2l3.243-2.085A20.5,20.5,0,0,0,18.1,44.081l.819,3.766A1.464,1.464,0,0,0,20.351,49h8.3a1.464,1.464,0,0,0,1.431-1.153l.819-3.766a20.5,20.5,0,0,0,2.923-1.212l3.243,2.085a1.464,1.464,0,0,0,1.827-.2l5.867-5.867a1.464,1.464,0,0,0,.2-1.827L42.869,33.82A20.5,20.5,0,0,0,44.081,30.9l3.766-.819A1.464,1.464,0,0,0,49,28.648v-8.3A1.464,1.464,0,0,0,47.847,18.921ZM24.5,36.213A11.713,11.713,0,1,1,36.213,24.5,11.727,11.727,0,0,1,24.5,36.213Zm0,0" transform="translate(0)" fill="#fcbf29"/>
    <path id="Path_512" data-name="Path 512" d="M277.217,18.921l-3.766-.819a20.5,20.5,0,0,0-1.212-2.923l2.085-3.243a1.464,1.464,0,0,0-.2-1.827L268.26,4.242a1.464,1.464,0,0,0-1.827-.2L263.19,6.131a20.5,20.5,0,0,0-2.923-1.212l-.819-3.766A1.464,1.464,0,0,0,258.018,0h-4.374V12.79c.075,0,.15,0,.225,0a11.713,11.713,0,1,1,0,23.426c-.076,0-.15,0-.225,0V49h4.374a1.464,1.464,0,0,0,1.431-1.153l.819-3.766a20.5,20.5,0,0,0,2.923-1.212l3.243,2.085a1.464,1.464,0,0,0,1.827-.2l5.867-5.867a1.464,1.464,0,0,0,.2-1.827l-2.085-3.243a20.5,20.5,0,0,0,1.212-2.923l3.766-.819a1.464,1.464,0,0,0,1.153-1.431v-8.3a1.464,1.464,0,0,0-1.153-1.431Zm0,0" transform="translate(-229.37)" fill="#ff4e0a"/>
  </g>
</svg>
