<svg xmlns="http://www.w3.org/2000/svg" width="52.499" height="52.5" viewBox="0 0 52.499 52.5">
  <g id="healthcare-and-medical" transform="translate(-0.001 -0.001)">
    <path id="Path_164" data-name="Path 164" d="M368.3,28.721l-7.323,7.324-6.562-6.562,7.324-7.323Z" transform="translate(-318.076 -19.887)" fill="#63c6f8"/>
    <path id="Path_165" data-name="Path 165" d="M397.024,57.44,389.7,64.765l-3.281-3.281,7.324-7.323Z" transform="translate(-346.795 -48.606)" fill="#23a5f6"/>
    <path id="Path_166" data-name="Path 166" d="M427.033,7.031l-6.58-6.58a1.538,1.538,0,1,0-2.175,2.175l6.58,6.58a1.538,1.538,0,0,0,2.175-2.175Z" transform="translate(-374.983 0)" fill="#63c6f8"/>
    <path id="Path_167" data-name="Path 167" d="M459.774,41.945a1.539,1.539,0,0,1-2.176,0l-3.289-3.289,2.176-2.176,3.289,3.289A1.54,1.54,0,0,1,459.774,41.945Z" transform="translate(-407.724 -32.739)" fill="#23a5f6"/>
    <path id="Path_168" data-name="Path 168" d="M9.169,424.64l-6.542,6.542a1.539,1.539,0,0,1-2.176-2.176l6.556-6.556a3.056,3.056,0,0,0,.387.473,16.889,16.889,0,0,0,1.775,1.718Z" transform="translate(0 -379.132)" fill="#e4edef"/>
    <path id="Path_169" data-name="Path 169" d="M13.107,434.539l-6.542,6.542a1.54,1.54,0,0,1-2.176,0l7.6-7.6A8.514,8.514,0,0,0,13.107,434.539Z" transform="translate(-3.938 -389.031)" fill="#bfdfe7"/>
    <path id="Path_170" data-name="Path 170" d="M68.111,365.2l-2.291,2.292a3.612,3.612,0,0,1-5.1,0L59.331,366.1a3.61,3.61,0,0,1,0-5.1l2.27-2.27a5.151,5.151,0,0,0,.872,1.158l4.387,4.387A5.179,5.179,0,0,0,68.111,365.2Z" transform="translate(-52.3 -321.946)" fill="#63c6f8"/>
    <path id="Path_171" data-name="Path 171" d="M83.1,394.526l-2.291,2.292a3.613,3.613,0,0,1-5.1,0l-.731-.731,4.677-4.677,2.193,2.193a5.177,5.177,0,0,0,1.252.923Z" transform="translate(-67.289 -351.275)" fill="#23a5f6"/>
    <path id="Path_172" data-name="Path 172" d="M115.7,91.611,93.545,113.77a5.681,5.681,0,0,1-8.025,0l-4.387-4.387a5.68,5.68,0,0,1,0-8.025L103.292,79.2Z" transform="translate(-71.324 -71.079)" fill="#e4edef"/>
    <path id="Path_173" data-name="Path 173" d="M149.426,145.926c-1.215,1.217-22.526,22.526-22.159,22.159a5.682,5.682,0,0,1-8.025,0l-2.193-2.193L143.22,139.72Z" transform="translate(-105.046 -125.393)" fill="#bfdfe7"/>
    <path id="Path_174" data-name="Path 174" d="M105.966,186.571c-13.078,13.078-7.4,7.4-12.422,12.421a5.681,5.681,0,0,1-8.025,0l-4.387-4.387a5.68,5.68,0,0,1,0-8.025L93.555,174.16Z" transform="translate(-71.324 -156.301)" fill="#f26376"/>
    <path id="Path_175" data-name="Path 175" d="M139.688,240.886l-12.421,12.422a5.681,5.681,0,0,1-8.025,0l-2.193-2.193,16.434-16.434Z" transform="translate(-105.046 -210.616)" fill="#db375a"/>
    <g id="Group_19" data-name="Group 19" transform="translate(20.598 29.139)">
      <path id="Path_176" data-name="Path 176" d="M249.348,288.524l-2.175,2.175-3.9-3.9a1.538,1.538,0,0,1,2.175-2.175Z" transform="translate(-238.521 -284.175)" fill="#b71c4c"/>
      <path id="Path_177" data-name="Path 177" d="M207.3,332.049l-2.175,2.176-3.814-3.814a1.538,1.538,0,1,1,2.175-2.175Z" transform="translate(-200.864 -323.313)" fill="#b71c4c"/>
    </g>
    <path id="Path_178" data-name="Path 178" d="M303.806,54.928,287.728,38.85a1.538,1.538,0,0,0-2.175,2.175L301.631,57.1a1.538,1.538,0,0,0,2.175-2.175Z" transform="translate(-255.867 -34.462)" fill="#e4edef"/>
    <path id="Path_179" data-name="Path 179" d="M378.876,132.167a1.539,1.539,0,0,1-2.176,0l-7.951-7.951c.468-.47.087-.088,2.175-2.176l7.952,7.952a1.539,1.539,0,0,1,0,2.175Z" transform="translate(-330.937 -109.526)" fill="#bfdfe7"/>
  </g>
</svg>
