<svg xmlns="http://www.w3.org/2000/svg" width="43.1" height="57.467" viewBox="0 0 43.1 57.467">
  <g id="population" transform="translate(0 -272)">
    <g id="Group_18" data-name="Group 18" transform="translate(0 272)">
      <path id="Path_151" data-name="Path 151" d="M21.55,392A21.613,21.613,0,0,0,0,413.55v3.592a3.557,3.557,0,0,0,3.592,3.592H39.508a3.557,3.557,0,0,0,3.592-3.592V413.55A21.613,21.613,0,0,0,21.55,392Zm0,0" transform="translate(0 -363.267)" fill="#ff9f00"/>
      <path id="Path_153" data-name="Path 153" d="M44.367,272a14.367,14.367,0,1,0,14.367,14.367A14.409,14.409,0,0,0,44.367,272Zm0,0" transform="translate(-22.817 -272)" fill="#ff9f00"/>
    </g>
    <path id="Path_162" data-name="Path 162" d="M111.55,413.55v3.592a3.557,3.557,0,0,1-3.592,3.592H90V392A21.613,21.613,0,0,1,111.55,413.55Zm0,0" transform="translate(-68.45 -91.267)" fill="#ff7816"/>
    <path id="Path_163" data-name="Path 163" d="M104.367,286.367A14.409,14.409,0,0,1,90,300.733V272A14.409,14.409,0,0,1,104.367,286.367Zm0,0" transform="translate(-68.45)" fill="#ff7816"/>
  </g>
</svg>
