<svg xmlns="http://www.w3.org/2000/svg" width="92.052" height="77.19" viewBox="0 0 92.052 77.19">
  <g id="medical-room" transform="translate(-1 -6.005)">
    <path id="Path_60" data-name="Path 60" d="M61.944,35.995v5.954H55.99V35.995h5.954Z" transform="translate(26.654 14.537)" fill="#e6e9ed"/>
    <path id="Path_61" data-name="Path 61" d="M87.144,40.005V57.822H4V40.005H87.144Z" transform="translate(1.454 16.48)" fill="#ff4e0a"/>
    <path id="Path_62" data-name="Path 62" d="M20.317,35.949V38.9H4V30.01H14.378v-.015a5.94,5.94,0,0,1,5.939,5.954Z" transform="translate(1.454 11.628)" fill="#ccd1d9"/>
    <path id="Path_63" data-name="Path 63" d="M24.771,35.995v5.954H4V35.995H24.771Z" transform="translate(1.454 14.537)" fill="#e6e9ed"/>
    <path id="Path_64" data-name="Path 64" d="M74.409,40.949v8.908a1.489,1.489,0,0,1-1.485,1.485H19.475a1.489,1.489,0,0,1-1.485-1.485V36.48A1.489,1.489,0,0,1,19.475,35h53.45a1.489,1.489,0,0,1,1.485,1.485Z" transform="translate(8.235 14.052)" fill="#ed5565"/>
    <path id="Path_65" data-name="Path 65" d="M21,35H68.511V46.873H21Z" transform="translate(9.694 14.052)" fill="#ff4e0a"/>
    <path id="Path_66" data-name="Path 66" d="M39.847,6.005A14.847,14.847,0,1,1,25,20.852,14.834,14.834,0,0,1,39.847,6.005Z" transform="translate(11.633 0)" fill="#ff4e0a"/>
    <path id="Path_67" data-name="Path 67" d="M62.969,31a1.489,1.489,0,0,1,1.485,1.485v37.1a1.489,1.489,0,0,1-1.485,1.485H61.485A1.489,1.489,0,0,1,60,69.593V32.49A1.489,1.489,0,0,1,61.485,31Z" transform="translate(28.598 12.118)" fill="#ff4e0a"/>
    <path id="Path_68" data-name="Path 68" d="M5.454,34.831V76.388a1.489,1.489,0,0,1-1.485,1.485H2.485A1.489,1.489,0,0,1,1,76.388V18.47a1.489,1.489,0,0,1,1.485-1.485H3.969A1.489,1.489,0,0,1,5.454,18.47Z" transform="translate(0 5.322)" fill="#ff4e0a"/>
    <g id="Group_12" data-name="Group 12" transform="translate(44.054 13.421)">
      <path id="Path_69" data-name="Path 69" d="M35.483,25.847A1.483,1.483,0,0,1,34,24.362V12.485a1.485,1.485,0,1,1,2.969,0V24.362A1.483,1.483,0,0,1,35.483,25.847Z" transform="translate(-28.059 -11)" fill="#e6e9ed"/>
      <path id="Path_70" data-name="Path 70" d="M43.36,17.969H31.483a1.485,1.485,0,1,1,0-2.969H43.36a1.485,1.485,0,1,1,0,2.969Z" transform="translate(-29.998 -9.061)" fill="#e6e9ed"/>
    </g>
  </g>
</svg>
