<svg xmlns="http://www.w3.org/2000/svg" width="35.909" height="39.404" viewBox="0 0 35.909 39.404">
  <g id="add-user" transform="translate(-20.114)">
    <g id="Group_58" data-name="Group 58" transform="translate(20.114)">
      <path id="Path_319" data-name="Path 319" d="M35.186,220.213a10.467,10.467,0,0,1,5.538-9.261h0a4.582,4.582,0,0,1,.681-.318,12.3,12.3,0,0,0-5.221-1.135h-3.45a12.584,12.584,0,0,0-12.62,12.575v3.178a1.338,1.338,0,0,0,1.362,1.362H37.365a7.7,7.7,0,0,1-.454-.636A10.248,10.248,0,0,1,35.186,220.213Z" transform="translate(-20.114 -191.295)" fill="#fafafc"/>
      <path id="Path_320" data-name="Path 320" d="M97.431,16.706a8.387,8.387,0,0,0,5.9-2.451,8.329,8.329,0,0,0,0-11.8,8.329,8.329,0,0,0-11.8,0,8.468,8.468,0,0,0-2.451,5.9A8.389,8.389,0,0,0,97.431,16.706Z" transform="translate(-83.086)" fill="#fafafc"/>
    </g>
    <path id="Path_321" data-name="Path 321" d="M201.442,211.592a10.754,10.754,0,0,0-4.267.908c-.227.091-.454.227-.681.318h0a10.573,10.573,0,0,0-5.538,9.261,10.248,10.248,0,0,0,1.725,5.765,5.511,5.511,0,0,0,.454.636,10.517,10.517,0,1,0,8.308-16.887Z" transform="translate(-155.996 -193.206)" fill="#16c244"/>
    <path id="Path_322" data-name="Path 322" d="M259.1,282.662v-2.406H261.5a1.362,1.362,0,0,0,0-2.724H259.1v-2.406a1.362,1.362,0,0,0-2.724,0v2.406h-2.406a1.362,1.362,0,1,0,0,2.724h2.406v2.406a1.362,1.362,0,0,0,2.724,0Z" transform="translate(-212.289 -249.976)" fill="#fafafc"/>
  </g>
</svg>
