<svg xmlns="http://www.w3.org/2000/svg" width="46.13" height="39.924" viewBox="0 0 46.13 39.924">
  <g id="gift" transform="translate(0 0)">
    <path id="Path_303" data-name="Path 303" d="M216.831,4.065c-1.582-1.58-4.305-1.444-6.657.174C209.526,1.743,207.8,0,205.719,0s-3.819,1.756-4.461,4.267c-2.345-1.6-5.051-1.727-6.627-.154-1.876,1.872-1.338,5.341,1.224,7.9a7.4,7.4,0,0,0,5.043,2.337,3.969,3.969,0,0,0,2.871-1.115,3.648,3.648,0,0,0,.5-.631,3.67,3.67,0,0,0,2.933-.019,3.619,3.619,0,0,0,.486.6,4,4,0,0,0,2.882,1.116,5.5,5.5,0,0,0,1.157-.127,8.031,8.031,0,0,0,3.875-2.211c2.562-2.557,3.1-6.026,1.224-7.9Zm-15.306,6.928c-.438.437-2.028.172-3.425-1.222s-1.662-2.981-1.224-3.418a.884.884,0,0,1,.628-.193,4.357,4.357,0,0,1,2.8,1.415,5.416,5.416,0,0,1,1.1,1.539q.1.305.22.592a1.4,1.4,0,0,1-.093,1.288Zm4.195-1.263c-.348,0-.8-.413-1.122-1.124q-.095-.3-.22-.6a5.572,5.572,0,0,1-.214-1.562c0-1.972.936-3.281,1.556-3.281s1.556,1.309,1.556,3.281a5.564,5.564,0,0,1-.224,1.594c-.068.167-.13.335-.184.5-.328.747-.79,1.184-1.148,1.184Zm7.642-.007a4.909,4.909,0,0,1-2.3,1.355,1.287,1.287,0,0,1-1.124-.133,1.282,1.282,0,0,1-.133-1.122c.015-.068.033-.138.054-.207q.094-.233.174-.478a5.421,5.421,0,0,1,1.129-1.612,4.358,4.358,0,0,1,2.8-1.415.884.884,0,0,1,.628.193c.438.437.173,2.023-1.224,3.418Zm0,0" transform="translate(-178.552)" fill="#ff6770"/>
    <path id="Path_304" data-name="Path 304" d="M320.293,4.069c-1.582-1.58-4.305-1.444-6.657.174C312.989,1.75,311.267.009,309.191,0V3.172c.62.013,1.546,1.318,1.546,3.28a5.562,5.562,0,0,1-.224,1.593q-.1.251-.184.5c-.325.741-.782,1.175-1.138,1.183V12.9a3.689,3.689,0,0,0,1.478-.315,3.619,3.619,0,0,0,.486.6,4,4,0,0,0,2.881,1.116,5.479,5.479,0,0,0,1.157-.127,8.029,8.029,0,0,0,3.875-2.211c2.562-2.557,3.1-6.026,1.224-7.9Zm-3.469,5.658a4.909,4.909,0,0,1-2.3,1.355,1.287,1.287,0,0,1-1.124-.133,1.281,1.281,0,0,1-.133-1.122c.015-.068.033-.138.054-.207q.094-.233.174-.478a5.42,5.42,0,0,1,1.129-1.612,4.358,4.358,0,0,1,2.8-1.415.884.884,0,0,1,.628.193c.438.437.173,2.023-1.224,3.418Zm0,0" transform="translate(-282.733 -0.003)" fill="#f4344f"/>
    <path id="Path_305" data-name="Path 305" d="M165.744,214a1.583,1.583,0,0,0-1.266-.633H129.444a1.587,1.587,0,0,0-1.468.983,1.571,1.571,0,0,0-.156.681v18.99a4.949,4.949,0,0,0,4.631,5.205H161.5a4.949,4.949,0,0,0,4.631-5.205v-18.99a1.574,1.574,0,0,0-.384-1.031Zm0,0" transform="translate(-122.259 -199.298)" fill="#b9b8ea"/>
    <path id="Path_306" data-name="Path 306" d="M327.964,214a1.583,1.583,0,0,0-1.266-.633H309.192v25.859h14.525a4.949,4.949,0,0,0,4.631-5.205v-18.99a1.574,1.574,0,0,0-.384-1.031Zm0,0" transform="translate(-284.478 -199.298)" fill="#9692d1"/>
    <path id="Path_307" data-name="Path 307" d="M266.262,240.022V215.843a1.586,1.586,0,0,1,1.587-1.585h5.9a1.586,1.586,0,0,1,1.587,1.585v24.179Zm0,0" transform="translate(-243.105 -200.099)" fill="#ff6770"/>
    <path id="Path_308" data-name="Path 308" d="M312.141,214.258h-2.95v25.764h4.537V215.843a1.586,1.586,0,0,0-1.587-1.585Zm0,0" transform="translate(-281.773 -200.098)" fill="#f4344f"/>
    <path id="Path_309" data-name="Path 309" d="M147.66,129.684H108.006a1.585,1.585,0,0,1-1.587-1.584V117.764a1.586,1.586,0,0,1,1.587-1.584H147.66a1.586,1.586,0,0,1,1.587,1.584V128.1A1.585,1.585,0,0,1,147.66,129.684Zm0,0" transform="translate(-103.117 -106.889)" fill="#dfdef4"/>
    <path id="Path_310" data-name="Path 310" d="M329.021,116.18H309.192v13.5h19.829a1.585,1.585,0,0,0,1.587-1.584V117.764a1.586,1.586,0,0,0-1.587-1.584Zm0,0" transform="translate(-284.478 -106.889)" fill="#b9b8ea"/>
    <path id="Path_311" data-name="Path 311" d="M275.332,129.695h-9.07V116.18h9.07Zm0,0" transform="translate(-243.104 -106.89)" fill="#ff9f9e"/>
    <path id="Path_312" data-name="Path 312" d="M309.191,116.18h4.537v13.515h-4.537Zm0,0" transform="translate(-281.773 -106.89)" fill="#ff6770"/>
    <path id="Path_313" data-name="Path 313" d="M75.684,375.231H62.708a1.584,1.584,0,1,1,0-3.168H75.684a1.584,1.584,0,1,1,0,3.168Zm0,0" transform="translate(-54.667 -341.24)" fill="#0070a7"/>
    <path id="Path_314" data-name="Path 314" d="M20.626,301.231H1.587a1.584,1.584,0,1,1,0-3.168h19.04a1.584,1.584,0,1,1,0,3.168Zm0,0" transform="translate(0 -272.481)" fill="#9de3fb"/>
  </g>
</svg>
