<svg xmlns="http://www.w3.org/2000/svg" width="62.964" height="52.017" viewBox="0 0 62.964 52.017">
  <g id="love-and-romance" transform="translate(-160.518 -18.366)">
    <path id="Path_289" data-name="Path 289" d="M219.261,44.314c9.006-9.553,2.7-25.494-10.424-25.937q-.313-.01-.628-.011a18.274,18.274,0,0,0-16.177,9.768,18.274,18.274,0,0,0-16.177-9.768q-.348,0-.693.013c-13.087.488-19.411,16.315-10.473,25.885l22.474,24.064a6.471,6.471,0,0,0,9.438.022Z" transform="translate(0 0)" fill="#ff405c"/>
    <path id="Path_290" data-name="Path 290" d="M272.838,18.377q-.313-.01-.628-.011a18.275,18.275,0,0,0-16.177,9.768c-.01-.02-.021-.039-.032-.058v42.3a6.44,6.44,0,0,0,4.6-2.026l22.661-24.037c9.006-9.553,2.7-25.493-10.424-25.937Z" transform="translate(-64.001)" fill="#b03345"/>
  </g>
</svg>
