<svg xmlns="http://www.w3.org/2000/svg" width="63.028" height="60.566" viewBox="0 0 63.028 60.566">
  <g id="calendar_1_" data-name="calendar (1)" transform="translate(0 -10)">
    <g id="Group_31" data-name="Group 31" transform="translate(0 25.265)">
      <path id="Path_236" data-name="Path 236" d="M0,134v40.377A4.93,4.93,0,0,0,4.924,179.3H58.1a4.93,4.93,0,0,0,4.924-4.924V134Z" transform="translate(0 -134)" fill="#d8dce1"/>
    </g>
    <g id="Group_32" data-name="Group 32" transform="translate(0 11.477)">
      <path id="Path_237" data-name="Path 237" d="M58.1,22H4.924A4.93,4.93,0,0,0,0,26.924v8.863H63.028V26.924A4.93,4.93,0,0,0,58.1,22ZM7.878,31.848a2.954,2.954,0,1,1,2.954-2.954A2.954,2.954,0,0,1,7.878,31.848Zm47.271,0A2.954,2.954,0,1,1,58.1,28.894,2.954,2.954,0,0,1,55.149,31.848Z" transform="translate(0 -22)" fill="#ff4f19"/>
    </g>
    <g id="Group_48" data-name="Group 48" transform="translate(7.878 34.128)">
      <g id="Group_33" data-name="Group 33" transform="translate(19.696)">
        <path id="Path_238" data-name="Path 238" d="M227.939,206a3.939,3.939,0,1,0,3.939,3.939A3.943,3.943,0,0,0,227.939,206Z" transform="translate(-224 -206)" fill="#fff"/>
      </g>
      <g id="Group_34" data-name="Group 34" transform="translate(9.848)">
        <path id="Path_239" data-name="Path 239" d="M147.939,206a3.939,3.939,0,1,0,3.939,3.939A3.943,3.943,0,0,0,147.939,206Z" transform="translate(-144 -206)" fill="#fff"/>
      </g>
      <g id="Group_35" data-name="Group 35">
        <path id="Path_240" data-name="Path 240" d="M67.939,206a3.939,3.939,0,1,0,3.939,3.939A3.943,3.943,0,0,0,67.939,206Z" transform="translate(-64 -206)" fill="#fff"/>
      </g>
      <g id="Group_36" data-name="Group 36" transform="translate(29.544)">
        <path id="Path_241" data-name="Path 241" d="M307.939,206a3.939,3.939,0,1,0,3.939,3.939A3.943,3.943,0,0,0,307.939,206Z" transform="translate(-304 -206)" fill="#fff"/>
      </g>
      <g id="Group_37" data-name="Group 37" transform="translate(39.392)">
        <path id="Path_242" data-name="Path 242" d="M387.939,213.878A3.939,3.939,0,1,0,384,209.939,3.943,3.943,0,0,0,387.939,213.878Z" transform="translate(-384 -206)" fill="#fff"/>
      </g>
      <g id="Group_38" data-name="Group 38" transform="translate(19.696 9.848)">
        <path id="Path_243" data-name="Path 243" d="M227.939,286a3.939,3.939,0,1,0,3.939,3.939A3.943,3.943,0,0,0,227.939,286Z" transform="translate(-224 -286)" fill="#fff"/>
      </g>
      <g id="Group_39" data-name="Group 39" transform="translate(9.848 9.848)">
        <path id="Path_244" data-name="Path 244" d="M147.939,286a3.939,3.939,0,1,0,3.939,3.939A3.943,3.943,0,0,0,147.939,286Z" transform="translate(-144 -286)" fill="#fff"/>
      </g>
      <g id="Group_40" data-name="Group 40" transform="translate(0 9.848)">
        <path id="Path_245" data-name="Path 245" d="M67.939,286a3.939,3.939,0,1,0,3.939,3.939A3.943,3.943,0,0,0,67.939,286Z" transform="translate(-64 -286)" fill="#fff"/>
      </g>
      <g id="Group_41" data-name="Group 41" transform="translate(29.544 9.848)">
        <path id="Path_246" data-name="Path 246" d="M307.939,286a3.939,3.939,0,1,0,3.939,3.939A3.943,3.943,0,0,0,307.939,286Z" transform="translate(-304 -286)" fill="#fff"/>
      </g>
      <g id="Group_42" data-name="Group 42" transform="translate(39.392 9.848)">
        <path id="Path_247" data-name="Path 247" d="M387.939,286a3.939,3.939,0,1,0,3.939,3.939A3.943,3.943,0,0,0,387.939,286Z" transform="translate(-384 -286)" fill="#fff"/>
      </g>
      <g id="Group_43" data-name="Group 43" transform="translate(19.696 19.696)">
        <path id="Path_248" data-name="Path 248" d="M227.939,366a3.939,3.939,0,1,0,3.939,3.939A3.943,3.943,0,0,0,227.939,366Z" transform="translate(-224 -366)" fill="#fff"/>
      </g>
      <g id="Group_44" data-name="Group 44" transform="translate(9.848 19.696)">
        <path id="Path_249" data-name="Path 249" d="M147.939,366a3.939,3.939,0,1,0,3.939,3.939A3.943,3.943,0,0,0,147.939,366Z" transform="translate(-144 -366)" fill="#fff"/>
      </g>
      <g id="Group_45" data-name="Group 45" transform="translate(0 19.696)">
        <path id="Path_250" data-name="Path 250" d="M67.939,366a3.939,3.939,0,1,0,3.939,3.939A3.943,3.943,0,0,0,67.939,366Z" transform="translate(-64 -366)" fill="#fff"/>
      </g>
      <g id="Group_46" data-name="Group 46" transform="translate(29.544 19.696)">
        <path id="Path_251" data-name="Path 251" d="M307.939,366a3.939,3.939,0,1,0,3.939,3.939A3.943,3.943,0,0,0,307.939,366Z" transform="translate(-304 -366)" fill="#fff"/>
      </g>
      <g id="Group_47" data-name="Group 47" transform="translate(39.392 19.696)">
        <path id="Path_252" data-name="Path 252" d="M387.939,366a3.939,3.939,0,1,0,3.939,3.939A3.943,3.943,0,0,0,387.939,366Z" transform="translate(-384 -366)" fill="#fff"/>
      </g>
    </g>
    <g id="Group_50" data-name="Group 50" transform="translate(6.401 10)">
      <g id="Group_49" data-name="Group 49">
        <path id="Path_253" data-name="Path 253" d="M53.477,19.848A1.477,1.477,0,0,1,52,18.371V11.477a1.477,1.477,0,0,1,2.954,0v6.894A1.477,1.477,0,0,1,53.477,19.848Z" transform="translate(-52 -10)" fill="#5c546a"/>
      </g>
    </g>
    <g id="Group_52" data-name="Group 52" transform="translate(53.672 10)">
      <g id="Group_51" data-name="Group 51">
        <path id="Path_254" data-name="Path 254" d="M437.477,19.848A1.477,1.477,0,0,1,436,18.371V11.477a1.477,1.477,0,0,1,2.954,0v6.894A1.477,1.477,0,0,1,437.477,19.848Z" transform="translate(-436 -10)" fill="#5c546a"/>
      </g>
    </g>
    <g id="Group_53" data-name="Group 53" transform="translate(7.878 34.128)">
      <circle id="Ellipse_9" data-name="Ellipse 9" cx="3.939" cy="3.939" r="3.939" fill="#ffd200"/>
    </g>
    <g id="Group_54" data-name="Group 54" transform="translate(27.575 53.824)">
      <circle id="Ellipse_10" data-name="Ellipse 10" cx="3.939" cy="3.939" r="3.939" fill="#ff9600"/>
    </g>
    <g id="Group_55" data-name="Group 55" transform="translate(37.423 43.976)">
      <circle id="Ellipse_11" data-name="Ellipse 11" cx="3.939" cy="3.939" r="3.939" fill="#ff4f19"/>
    </g>
  </g>
</svg>
