<svg xmlns="http://www.w3.org/2000/svg" width="38.622" height="43.076" viewBox="0 0 38.622 43.076">
  <g id="surface1" transform="translate(-0.039)">
    <path id="Path_352" data-name="Path 352" d="M1.522,38.617h22.9a6.8,6.8,0,0,1-.248-.644c-.02-.074-.04-.141-.06-.215q-.071-.232-.121-.463c-.02-.087-.034-.168-.054-.255-.027-.148-.054-.3-.074-.456-.013-.087-.02-.175-.027-.262-.013-.161-.02-.329-.027-.5,0-.06-.007-.114-.007-.175v-.06c0-.181.013-.369.027-.557a1.278,1.278,0,0,0,.007-.161A7.852,7.852,0,0,1,24.1,33.5a7.355,7.355,0,0,1,6.34-5.239c.054-.007.114-.007.168-.013.181-.014.369-.027.55-.027h.061c.06,0,.114.007.174.007.168.007.329.013.5.027.087.007.174.02.262.034.154.02.3.047.456.074.087.013.174.034.255.054q.231.05.463.12a2.045,2.045,0,0,1,.215.067,6.724,6.724,0,0,1,.644.248V1.483A1.483,1.483,0,0,0,32.7,0H9.693V7.427A1.483,1.483,0,0,1,8.211,8.909H.039V37.127A1.489,1.489,0,0,0,1.522,38.617ZM28.257,14.853ZM8.949,14.853ZM28.257,19.308ZM28.257,23.763ZM24.547,28.218ZM21.575,32.672Zm0,0" fill="#ffe9cc"/>
    <path id="Path_353" data-name="Path 353" d="M143.938,256.451h23.018a1.483,1.483,0,0,0,1.483-1.483V233.5A37.226,37.226,0,0,1,143.938,256.451Zm0,0" transform="translate(-134.245 -217.835)" fill="#ffe2bd"/>
    <path id="Path_354" data-name="Path 354" d="M357.258,556.264q-.07-.232-.121-.463A3.358,3.358,0,0,0,357.258,556.264Zm0,0" transform="translate(-333.141 -518.513)" fill="#ffe9cc"/>
    <path id="Path_355" data-name="Path 355" d="M354.367,534.395c-.013-.161-.02-.329-.027-.5C354.347,534.066,354.353,534.234,354.367,534.395Zm0,0" transform="translate(-330.531 -498.079)" fill="#ffe9cc"/>
    <path id="Path_356" data-name="Path 356" d="M355.211,545.655c-.027-.148-.054-.3-.074-.456C355.157,545.353,355.184,545.508,355.211,545.655Zm0,0" transform="translate(-331.275 -508.622)" fill="#ffe9cc"/>
    <path id="Path_357" data-name="Path 357" d="M467.539,420.7c.168.007.329.013.5.027C467.868,420.712,467.707,420.706,467.539,420.7Zm0,0" transform="translate(-436.136 -392.475)" fill="#ffe9cc"/>
    <path id="Path_358" data-name="Path 358" d="M455.84,420.726c.181-.014.362-.027.55-.027A5.014,5.014,0,0,0,455.84,420.726Zm0,0" transform="translate(-425.222 -392.475)" fill="#ffe9cc"/>
    <path id="Path_359" data-name="Path 359" d="M360.088,566.644a6.677,6.677,0,0,1-.248-.644C359.914,566.215,359.994,566.429,360.088,566.644Zm0,0" transform="translate(-335.662 -528.028)" fill="#ffe9cc"/>
    <path id="Path_360" data-name="Path 360" d="M500.183,426.447a6.77,6.77,0,0,0-.644-.248A6.77,6.77,0,0,1,500.183,426.447Zm0,0" transform="translate(-465.989 -397.606)" fill="#ffe9cc"/>
    <path id="Path_361" data-name="Path 361" d="M489.438,423.4q.231.05.463.121C489.747,423.479,489.6,423.432,489.438,423.4Zm0,0" transform="translate(-456.566 -394.993)" fill="#ffe9cc"/>
    <path id="Path_362" data-name="Path 362" d="M354.238,522.659c0-.188.013-.369.027-.557C354.251,522.29,354.245,522.471,354.238,522.659Zm0,0" transform="translate(-330.436 -487.075)" fill="#ffe9cc"/>
    <path id="Path_363" data-name="Path 363" d="M478.84,421.6c.154.02.3.047.456.074C479.148,421.642,478.994,421.622,478.84,421.6Zm0,0" transform="translate(-446.679 -393.317)" fill="#ffe9cc"/>
    <path id="Path_364" data-name="Path 364" d="M361.448,421.2a8.04,8.04,0,0,0-1.375.268,7.356,7.356,0,0,0-4.965,4.971,7.942,7.942,0,0,0-.268,1.369A7.432,7.432,0,0,1,361.448,421.2Zm0,0" transform="translate(-330.998 -392.941)" fill="#ffe9cc"/>
    <path id="Path_365" data-name="Path 365" d="M9.693,7.427V0L.039,8.909H8.211A1.483,1.483,0,0,0,9.693,7.427Zm0,0" fill="#ffa993"/>
    <path id="Path_366" data-name="Path 366" d="M363.867,420.917c-.148-.047-.309-.087-.463-.121-.087-.02-.168-.034-.255-.054-.148-.027-.3-.054-.456-.074-.087-.014-.175-.02-.262-.034-.161-.014-.329-.02-.5-.027-.08,0-.154-.007-.235-.007-.188,0-.369.013-.55.027-.054.007-.114.007-.168.013a7.426,7.426,0,0,0-6.608,6.608,1.272,1.272,0,0,0-.007.161c-.013.181-.027.369-.027.557,0,.081.007.154.007.235.007.168.013.335.027.5.007.087.02.174.027.262.02.154.047.3.074.456.013.087.034.175.053.255q.05.232.121.463c.02.074.04.141.061.215a6.674,6.674,0,0,0,.248.644,7.424,7.424,0,1,0,9.775-9.761,6.715,6.715,0,0,0-.644-.248C364.014,420.957,363.94,420.937,363.867,420.917Zm-2.107,11.566v0Zm0,0" transform="translate(-330.531 -392.384)" fill="#7ebd50"/>
    <path id="Path_367" data-name="Path 367" d="M354.738,519.86a1.272,1.272,0,0,0,.007-.161A1.272,1.272,0,0,0,354.738,519.86Zm0,0" transform="translate(-330.903 -484.833)" fill="#ffe9cc"/>
    <path id="Path_368" data-name="Path 368" d="M354.238,530.459c0,.06.007.114.007.174,0-.074-.007-.154-.007-.235Zm0,0" transform="translate(-330.436 -494.814)" fill="#ffe9cc"/>
    <path id="Path_369" data-name="Path 369" d="M453.34,421.013c.053-.007.114-.007.168-.013C453.447,421.007,453.393,421.007,453.34,421.013Zm0,0" transform="translate(-422.889 -392.756)" fill="#ffe9cc"/>
    <path id="Path_370" data-name="Path 370" d="M354.867,541.563c-.013-.087-.02-.174-.027-.261A1.738,1.738,0,0,0,354.867,541.563Zm0,0" transform="translate(-330.998 -504.986)" fill="#ffe9cc"/>
    <path id="Path_371" data-name="Path 371" d="M359,562.914c-.02-.074-.04-.141-.061-.215C358.958,562.773,358.978,562.847,359,562.914Zm0,0" transform="translate(-334.821 -524.948)" fill="#ffe9cc"/>
    <path id="Path_372" data-name="Path 372" d="M496.34,425.3a1.979,1.979,0,0,1,.215.067A1.979,1.979,0,0,0,496.34,425.3Zm0,0" transform="translate(-463.005 -396.768)" fill="#ffe9cc"/>
    <path id="Path_373" data-name="Path 373" d="M485.637,422.6c.087.013.174.034.255.053C485.8,422.635,485.724,422.622,485.637,422.6Zm0,0" transform="translate(-453.02 -394.25)" fill="#ffe9cc"/>
    <path id="Path_374" data-name="Path 374" d="M356.292,552.255c-.02-.087-.034-.168-.054-.255C356.258,552.087,356.272,552.168,356.292,552.255Zm0,0" transform="translate(-332.302 -514.967)" fill="#ffe9cc"/>
    <path id="Path_375" data-name="Path 375" d="M474.84,421.1c.087.007.174.02.261.034C475.021,421.122,474.934,421.109,474.84,421.1Zm0,0" transform="translate(-442.947 -392.851)" fill="#ffe9cc"/>
    <path id="Path_376" data-name="Path 376" d="M464.1,420.6h-.06c.08,0,.161.007.235.007C464.213,420.609,464.16,420.6,464.1,420.6Zm0,0" transform="translate(-432.871 -392.384)" fill="#ffe9cc"/>
    <path id="Path_377" data-name="Path 377" d="M454.585,464.2a.747.747,0,0,1-.745-.745v-8.909a.745.745,0,0,1,1.489,0v8.909A.752.752,0,0,1,454.585,464.2Zm0,0" transform="translate(-423.356 -423.356)" fill="#f1f2f2"/>
    <path id="Path_378" data-name="Path 378" d="M397.092,521.591h-8.909a.745.745,0,1,1,0-1.489h8.909a.745.745,0,0,1,0,1.489Zm0,0" transform="translate(-361.409 -485.209)" fill="#f1f2f2"/>
    <path id="Path_379" data-name="Path 379" d="M100.557,278.091H78.284a.745.745,0,0,1,0-1.489h22.274a.745.745,0,1,1,0,1.489Zm0,0" transform="translate(-72.301 -258.045)" fill="#ff7956"/>
    <path id="Path_380" data-name="Path 380" d="M100.557,344.591H78.284a.745.745,0,0,1,0-1.489h22.274a.745.745,0,1,1,0,1.489Zm0,0" transform="translate(-72.301 -320.084)" fill="#ff7956"/>
    <path id="Path_381" data-name="Path 381" d="M96.847,410.989H78.284a.745.745,0,0,1,0-1.489H96.847a.745.745,0,0,1,0,1.489Zm0,0" transform="translate(-72.301 -382.027)" fill="#ff7956"/>
    <path id="Path_382" data-name="Path 382" d="M93.875,477.388H78.284a.745.745,0,0,1,0-1.49H93.875a.745.745,0,0,1,0,1.49Zm0,0" transform="translate(-72.301 -443.971)" fill="#ff7956"/>
    <path id="Path_383" data-name="Path 383" d="M183.12,211.688H166.784a.745.745,0,0,1,0-1.489H183.12a.745.745,0,1,1,0,1.489Zm0,0" transform="translate(-154.863 -196.097)" fill="#ff7956"/>
    <path id="Path_384" data-name="Path 384" d="M81.249,211.688H78.284a.745.745,0,0,1,0-1.489h2.966a.745.745,0,0,1,0,1.489Zm0,0" transform="translate(-72.301 -196.097)" fill="#ff7956"/>
  </g>
</svg>
