<svg xmlns="http://www.w3.org/2000/svg" width="67.537" height="38.291" viewBox="0 0 67.537 38.291">
  <g id="business-and-finance" transform="translate(0 -56.256)">
    <path id="Path_255" data-name="Path 255" d="M14.154,70.41H77.5v34.1H14.154Z" transform="translate(-12.059 -12.059)" fill="#c2f8e1"/>
    <path id="Path_256" data-name="Path 256" d="M67.539,70.41v17.3a6.775,6.775,0,0,1-6.775,6.775H14.154v10.03H77.5V70.41Z" transform="translate(-12.059 -12.059)" fill="#99f5d2"/>
    <path id="Path_257" data-name="Path 257" d="M0,57.777V93.026a1.521,1.521,0,0,0,1.521,1.521H66.016a1.521,1.521,0,0,0,1.521-1.521V57.777a1.521,1.521,0,0,0-1.521-1.521H1.521A1.521,1.521,0,0,0,0,57.777ZM52.95,90.358H14.587A.454.454,0,0,1,14.141,90a12.3,12.3,0,0,0-9.59-9.59.454.454,0,0,1-.362-.446V70.843a.454.454,0,0,1,.362-.446,12.3,12.3,0,0,0,9.59-9.59.454.454,0,0,1,.446-.362H52.95a.454.454,0,0,1,.446.362,12.3,12.3,0,0,0,9.59,9.59.454.454,0,0,1,.362.446V79.96a.454.454,0,0,1-.362.446A12.3,12.3,0,0,0,53.4,90a.454.454,0,0,1-.446.362Z" transform="translate(0 0)" fill="#05e29a"/>
    <path id="Path_258" data-name="Path 258" d="M66.016,56.256h-5.3V69.7a12.2,12.2,0,0,0,2.27.7.454.454,0,0,1,.362.446V79.96a.454.454,0,0,1-.362.446,12.2,12.2,0,0,0-2.27.7v5.041a1.521,1.521,0,0,1-1.521,1.521H54.12A12.2,12.2,0,0,0,53.4,90a.454.454,0,0,1-.446.362H14.587A.454.454,0,0,1,14.141,90a12.2,12.2,0,0,0-.723-2.33H0v5.36a1.521,1.521,0,0,0,1.521,1.521H66.016a1.521,1.521,0,0,0,1.521-1.521V57.777a1.521,1.521,0,0,0-1.521-1.521Z" transform="translate(0 0)" fill="#1dd08d"/>
    <circle id="Ellipse_12" data-name="Ellipse 12" cx="10.498" cy="10.498" r="10.498" transform="translate(23.271 64.823)" fill="#05e29a"/>
    <path id="Path_259" data-name="Path 259" d="M185.922,238.771a10.462,10.462,0,0,0,7.34-3h-14.68A10.461,10.461,0,0,0,185.922,238.771Z" transform="translate(-152.153 -152.952)" fill="#1dd08d"/>
  </g>
</svg>
