<svg xmlns="http://www.w3.org/2000/svg" width="60.13" height="80.508" viewBox="0 0 60.13 80.508">
  <g id="levantamento-do-mastro" transform="translate(-64.797 0)">
    <path id="Path_291" data-name="Path 291" d="M124.927,21.427v55.74a3.341,3.341,0,0,1-3.341,3.341H68.138A3.341,3.341,0,0,1,64.8,77.167V3.341A3.341,3.341,0,0,1,68.138,0H103.5a3.341,3.341,0,0,1,2.362.978l18.087,18.087A3.341,3.341,0,0,1,124.927,21.427Z" transform="translate(0 0)" fill="#f1f1fb"/>
    <path id="Path_292" data-name="Path 292" d="M288.473,19.065,268.281.978A3.961,3.961,0,0,0,265.644,0H256V80.508h29.836a3.551,3.551,0,0,0,3.729-3.341V21.427A3.174,3.174,0,0,0,288.473,19.065Z" transform="translate(-164.638 0)" fill="#d7d6fb"/>
    <path id="Path_293" data-name="Path 293" d="M323.6,23.776h17.778a3.725,3.725,0,0,0-.748-1.082L320.437,2.5a3.727,3.727,0,0,0-1.175-.792V19.439A4.337,4.337,0,0,0,323.6,23.776Z" transform="translate(-216.795 -1.41)" fill="#a0a0ce"/>
    <g id="Group_56" data-name="Group 56" transform="translate(93.305 28.254)">
      <path id="Path_294" data-name="Path 294" d="M276.51,203.8H259.733a2.633,2.633,0,0,1,0-5.266H276.51a2.633,2.633,0,0,1,0,5.266Z" transform="translate(-257.1 -198.535)" fill="#354a67"/>
      <path id="Path_295" data-name="Path 295" d="M276.51,303.8H259.733a2.633,2.633,0,0,1,0-5.266H276.51a2.633,2.633,0,0,1,0,5.266Z" transform="translate(-257.1 -280.98)" fill="#354a67"/>
      <path id="Path_296" data-name="Path 296" d="M276.586,403.8H259.733a2.633,2.633,0,0,1,0-5.266h16.853a2.633,2.633,0,1,1,0,5.266Z" transform="translate(-257.1 -363.426)" fill="#354a67"/>
    </g>
    <path id="Path_297" data-name="Path 297" d="M134.828,181.5a2.633,2.633,0,0,1-1.862-.771l-3.294-3.294a2.633,2.633,0,0,1,3.724-3.724l1.432,1.432,6.073-6.072a2.633,2.633,0,0,1,3.724,3.724l-7.935,7.934A2.631,2.631,0,0,1,134.828,181.5Z" transform="translate(-54.407 -142.365)" fill="#466288"/>
    <path id="Path_298" data-name="Path 298" d="M134.828,289.135a2.633,2.633,0,0,1-1.862-.771l-3.294-3.294a2.633,2.633,0,0,1,3.724-3.724l1.432,1.432,6.073-6.073a2.633,2.633,0,0,1,3.724,3.724l-7.935,7.935A2.631,2.631,0,0,1,134.828,289.135Z" transform="translate(-54.407 -233.416)" fill="#466288"/>
    <path id="Path_299" data-name="Path 299" d="M134.828,389.135a2.633,2.633,0,0,1-1.862-.771l-3.294-3.294a2.633,2.633,0,0,1,3.724-3.724l1.432,1.432,6.073-6.073a2.633,2.633,0,0,1,3.724,3.724l-7.935,7.935A2.631,2.631,0,0,1,134.828,389.135Z" transform="translate(-54.407 -319.313)" fill="#466288"/>
  </g>
</svg>
