<svg xmlns="http://www.w3.org/2000/svg" xmlns:xlink="http://www.w3.org/1999/xlink" width="29.446" height="29.473" viewBox="0 0 29.446 29.473">
  <defs>
    <linearGradient id="linear-gradient" y1="0.5" x2="1" y2="0.5" gradientUnits="objectBoundingBox">
      <stop offset="0" stop-color="#80d8ff"/>
      <stop offset="1" stop-color="#ea80fc"/>
    </linearGradient>
  </defs>
  <path id="upload_1_" data-name="upload (1)" d="M29.682,15.9v8.972a4.606,4.606,0,0,1-4.6,4.6H4.837a4.606,4.606,0,0,1-4.6-4.6V15.9a4.606,4.606,0,0,1,4.6-4.6H8.173a1.15,1.15,0,1,1,0,2.3H4.837a2.3,2.3,0,0,0-2.3,2.3v8.972a2.3,2.3,0,0,0,2.3,2.3H25.081a2.3,2.3,0,0,0,2.3-2.3V15.9a2.3,2.3,0,0,0-2.3-2.3H21.746a1.15,1.15,0,0,1,0-2.3h3.336a4.606,4.606,0,0,1,4.6,4.6ZM9.388,6.9c4.111-4.073,3.944-4.029,4.408-4.3l.027,18.9a1.15,1.15,0,0,0,1.15,1.149h0a1.15,1.15,0,0,0,1.149-1.152L16.1,2.607c.463.267.291.218,4.434,4.323A1.15,1.15,0,0,0,22.157,5.3L18.2,1.346a4.6,4.6,0,0,0-6.507,0L7.761,5.277A1.15,1.15,0,0,0,9.388,6.9Z" transform="translate(-0.236 0)" fill="url(#linear-gradient)"/>
</svg>
